# Blender 5.2.0 LTS
# www.blender.org
mtllib arm1.mtl
o arm1
v -0.173397 -0.051645 -0.118056
v -0.173397 -0.051541 0.130279
v -0.173397 2.081848 -0.118947
v -0.173397 2.081952 0.129387
v 0.150029 -0.051645 -0.118056
v 0.150029 -0.051541 0.130279
v 0.150029 2.081848 -0.118947
v 0.150029 2.081952 0.129387
vn -1.0000 -0.0000 -0.0000
vn -0.0000 1.0000 -0.0004
vn 1.0000 -0.0000 -0.0000
vn -0.0000 -1.0000 0.0004
vn -0.0000 -0.0004 -1.0000
vn -0.0000 0.0004 1.0000
vt 0.625000 0.000000
vt 0.375000 0.250000
vt 0.375000 0.000000
vt 0.625000 0.250000
vt 0.375000 0.500000
vt 0.625000 0.750000
vt 0.375000 0.750000
vt 0.375000 1.000000
vt 0.125000 0.750000
vt 0.125000 0.500000
vt 0.875000 0.500000
vt 0.625000 0.500000
vt 0.625000 1.000000
vt 0.875000 0.750000
s 0
usemtl Material.002
f 2/1/1 3/2/1 1/3/1
f 4/4/2 7/5/2 3/2/2
f 7/5/3 6/6/3 5/7/3
f 6/6/4 1/8/4 5/7/4
f 7/5/5 1/9/5 3/10/5
f 4/11/6 6/6/6 8/12/6
f 2/1/1 4/4/1 3/2/1
f 4/4/2 8/12/2 7/5/2
f 7/5/3 8/12/3 6/6/3
f 6/6/4 2/13/4 1/8/4
f 7/5/5 5/7/5 1/9/5
f 4/11/6 2/14/6 6/6/6
