# Blender 5.2.0 LTS
# www.blender.org
mtllib arm2.mtl
o arm2
v 0.000000 -0.043323 -0.135644
v 0.000000 1.371766 -0.121120
v 0.031153 -0.043363 -0.131792
v 0.031153 1.371726 -0.117268
v 0.060744 -0.043479 -0.120428
v 0.060744 1.371609 -0.105905
v 0.087289 -0.043667 -0.102124
v 0.087289 1.371422 -0.087600
v 0.109456 -0.043917 -0.077796
v 0.109456 1.371172 -0.063273
v 0.126136 -0.044216 -0.048665
v 0.126136 1.370873 -0.034141
v 0.136490 -0.044549 -0.016190
v 0.136490 1.370540 -0.001667
v 0.140000 -0.044900 0.017998
v 0.140000 1.370189 0.032522
v 0.136490 -0.045251 0.052187
v 0.136490 1.369838 0.066710
v 0.126136 -0.045584 0.084661
v 0.126136 1.369504 0.099184
v 0.109456 -0.045883 0.113792
v 0.109456 1.369206 0.128316
v 0.087289 -0.046133 0.138120
v 0.087289 1.368956 0.152644
v 0.060744 -0.046321 0.156425
v 0.060744 1.368768 0.170948
v 0.031153 -0.046437 0.167788
v 0.031153 1.368651 0.182311
v 0.000000 -0.046477 0.171640
v 0.000000 1.368612 0.186164
v -0.031153 -0.046437 0.167788
v -0.031153 1.368651 0.182311
v -0.060744 -0.046321 0.156425
v -0.060744 1.368768 0.170948
v -0.087289 -0.046133 0.138120
v -0.087289 1.368956 0.152644
v -0.109456 -0.045883 0.113792
v -0.109456 1.369206 0.128316
v -0.126136 -0.045584 0.084661
v -0.126136 1.369504 0.099184
v -0.136490 -0.045251 0.052187
v -0.136490 1.369838 0.066710
v -0.140000 -0.044900 0.017998
v -0.140000 1.370189 0.032522
v -0.136490 -0.044549 -0.016190
v -0.136490 1.370540 -0.001667
v -0.126136 -0.044216 -0.048665
v -0.126136 1.370873 -0.034141
v -0.109456 -0.043917 -0.077796
v -0.109456 1.371172 -0.063273
v -0.087289 -0.043667 -0.102124
v -0.087289 1.371422 -0.087600
v -0.060744 -0.043479 -0.120428
v -0.060744 1.371609 -0.105905
v -0.031153 -0.043363 -0.131792
v -0.031153 1.371726 -0.117268
vn 0.1227 0.0102 -0.9924
vn 0.3585 0.0096 -0.9335
vn 0.5677 0.0084 -0.8232
vn 0.7392 0.0069 -0.6735
vn 0.8678 0.0051 -0.4968
vn 0.9527 0.0031 -0.3037
vn 0.9948 0.0010 -0.1021
vn 0.9948 -0.0010 0.1021
vn 0.9527 -0.0031 0.3037
vn 0.8678 -0.0051 0.4968
vn 0.7392 -0.0069 0.6735
vn 0.5677 -0.0084 0.8232
vn 0.3585 -0.0096 0.9335
vn 0.1227 -0.0102 0.9924
vn -0.1227 -0.0102 0.9924
vn -0.3585 -0.0096 0.9335
vn -0.5677 -0.0084 0.8232
vn -0.7392 -0.0069 0.6735
vn -0.8678 -0.0051 0.4968
vn -0.9527 -0.0031 0.3037
vn -0.9948 -0.0010 0.1021
vn -0.9948 0.0010 -0.1021
vn -0.9527 0.0031 -0.3037
vn -0.8678 0.0051 -0.4968
vn -0.7392 0.0069 -0.6735
vn -0.5677 0.0084 -0.8232
vn -0.0000 0.9999 0.0103
vn -0.3585 0.0096 -0.9335
vn -0.1227 0.0102 -0.9924
vn -0.0000 -0.9999 -0.0103
vt 1.000000 1.000000
vt 0.964286 0.500000
vt 1.000000 0.500000
vt 0.928571 1.000000
vt 0.928571 0.500000
vt 0.892857 0.500000
vt 0.892857 1.000000
vt 0.857143 0.500000
vt 0.857143 1.000000
vt 0.821429 0.500000
vt 0.821429 1.000000
vt 0.785714 0.500000
vt 0.750000 1.000000
vt 0.750000 0.500000
vt 0.714286 0.500000
vt 0.678572 1.000000
vt 0.678572 0.500000
vt 0.642857 0.500000
vt 0.607143 1.000000
vt 0.607143 0.500000
vt 0.571429 1.000000
vt 0.571429 0.500000
vt 0.535715 1.000000
vt 0.535715 0.500000
vt 0.500000 0.500000
vt 0.500000 1.000000
vt 0.464286 0.500000
vt 0.464286 1.000000
vt 0.428572 0.500000
vt 0.428572 1.000000
vt 0.392857 0.500000
vt 0.392857 1.000000
vt 0.357143 0.500000
vt 0.357143 1.000000
vt 0.321429 0.500000
vt 0.321429 1.000000
vt 0.285714 0.500000
vt 0.285714 1.000000
vt 0.250000 0.500000
vt 0.250000 1.000000
vt 0.214286 0.500000
vt 0.214286 1.000000
vt 0.178572 0.500000
vt 0.178572 1.000000
vt 0.142857 0.500000
vt 0.142857 1.000000
vt 0.107143 0.500000
vt 0.107143 1.000000
vt 0.071429 0.500000
vt 0.437640 0.399638
vt 0.399638 0.437640
vt 0.062360 0.399638
vt 0.071429 1.000000
vt 0.035714 0.500000
vt 0.035714 1.000000
vt 0.000000 0.500000
vt 0.990000 0.250000
vt 0.696595 0.016017
vt 0.533767 0.354132
vt 0.964286 1.000000
vt 0.000000 1.000000
vt 0.696595 0.483983
vt 0.750000 0.490000
vt 0.899638 0.437640
vt 0.803405 0.483983
vt 0.854132 0.466233
vt 0.937640 0.399638
vt 0.966233 0.354132
vt 0.983983 0.303405
vt 0.983983 0.196595
vt 0.966233 0.145868
vt 0.937640 0.100362
vt 0.899638 0.062360
vt 0.854132 0.033767
vt 0.803405 0.016017
vt 0.750000 0.010000
vt 0.645868 0.033767
vt 0.533767 0.145868
vt 0.600362 0.062360
vt 0.562360 0.100362
vt 0.516017 0.196595
vt 0.510000 0.250000
vt 0.516017 0.303405
vt 0.562360 0.399638
vt 0.600362 0.437640
vt 0.645868 0.466233
vt 0.785714 1.000000
vt 0.714286 1.000000
vt 0.642857 1.000000
vt 0.354132 0.466233
vt 0.303405 0.483983
vt 0.196595 0.483983
vt 0.250000 0.490000
vt 0.145868 0.466233
vt 0.100362 0.437640
vt 0.033767 0.354132
vt 0.016017 0.303405
vt 0.466233 0.354132
vt 0.010000 0.250000
vt 0.483983 0.303405
vt 0.016017 0.196595
vt 0.490000 0.250000
vt 0.033767 0.145868
vt 0.483983 0.196595
vt 0.062360 0.100362
vt 0.466233 0.145868
vt 0.100362 0.062360
vt 0.437640 0.100362
vt 0.145868 0.033767
vt 0.399638 0.062360
vt 0.196595 0.016017
vt 0.354132 0.033767
vt 0.250000 0.010000
vt 0.303405 0.016017
s 0
usemtl Material.004
f 2/1/1 3/2/1 1/3/1
f 3/2/2 6/4/2 5/5/2
f 6/4/3 7/6/3 5/5/3
f 8/7/4 9/8/4 7/6/4
f 10/9/5 11/10/5 9/8/5
f 12/11/6 13/12/6 11/10/6
f 13/12/7 16/13/7 15/14/7
f 16/13/8 17/15/8 15/14/8
f 17/15/9 20/16/9 19/17/9
f 20/16/10 21/18/10 19/17/10
f 21/18/11 24/19/11 23/20/11
f 23/20/12 26/21/12 25/22/12
f 25/22/13 28/23/13 27/24/13
f 28/23/14 29/25/14 27/24/14
f 30/26/15 31/27/15 29/25/15
f 32/28/16 33/29/16 31/27/16
f 34/30/17 35/31/17 33/29/17
f 36/32/18 37/33/18 35/31/18
f 38/34/19 39/35/19 37/33/19
f 40/36/20 41/37/20 39/35/20
f 42/38/21 43/39/21 41/37/21
f 44/40/22 45/41/22 43/39/22
f 46/42/23 47/43/23 45/41/23
f 48/44/24 49/45/24 47/43/24
f 50/46/25 51/47/25 49/45/25
f 52/48/26 53/49/26 51/47/26
f 10/50/27 8/51/27 50/52/27
f 54/53/28 55/54/28 53/49/28
f 56/55/29 1/56/29 55/54/29
f 15/57/30 31/58/30 47/59/30
f 2/1/1 4/60/1 3/2/1
f 30/26/15 32/28/15 31/27/15
f 32/28/16 34/30/16 33/29/16
f 34/30/17 36/32/17 35/31/17
f 36/32/18 38/34/18 37/33/18
f 38/34/19 40/36/19 39/35/19
f 40/36/20 42/38/20 41/37/20
f 42/38/21 44/40/21 43/39/21
f 44/40/22 46/42/22 45/41/22
f 46/42/23 48/44/23 47/43/23
f 48/44/24 50/46/24 49/45/24
f 50/46/25 52/48/25 51/47/25
f 52/48/26 54/53/26 53/49/26
f 54/53/28 56/55/28 55/54/28
f 56/55/29 2/61/29 1/56/29
f 55/62/30 1/63/30 7/64/30
f 1/63/30 3/65/30 7/64/30
f 3/65/30 5/66/30 7/64/30
f 7/64/30 9/67/30 11/68/30
f 11/68/30 13/69/30 15/57/30
f 15/57/30 17/70/30 19/71/30
f 19/71/30 21/72/30 15/57/30
f 21/72/30 23/73/30 15/57/30
f 23/73/30 25/74/30 27/75/30
f 27/75/30 29/76/30 31/58/30
f 31/58/30 33/77/30 39/78/30
f 33/77/30 35/79/30 39/78/30
f 35/79/30 37/80/30 39/78/30
f 39/78/30 41/81/30 43/82/30
f 43/82/30 45/83/30 47/59/30
f 47/59/30 49/84/30 51/85/30
f 51/85/30 53/86/30 47/59/30
f 53/86/30 55/62/30 47/59/30
f 7/64/30 11/68/30 15/57/30
f 23/73/30 27/75/30 15/57/30
f 27/75/30 31/58/30 15/57/30
f 39/78/30 43/82/30 47/59/30
f 55/62/30 7/64/30 15/57/30
f 31/58/30 39/78/30 47/59/30
f 47/59/30 55/62/30 15/57/30
f 3/2/2 4/60/2 6/4/2
f 6/4/3 8/7/3 7/6/3
f 8/7/4 10/9/4 9/8/4
f 10/9/5 12/11/5 11/10/5
f 12/11/6 14/87/6 13/12/6
f 13/12/7 14/87/7 16/13/7
f 16/13/8 18/88/8 17/15/8
f 17/15/9 18/88/9 20/16/9
f 20/16/10 22/89/10 21/18/10
f 21/18/11 22/89/11 24/19/11
f 23/20/12 24/19/12 26/21/12
f 25/22/13 26/21/13 28/23/13
f 28/23/14 30/26/14 29/25/14
f 6/90/27 4/91/27 56/92/27
f 4/91/27 2/93/27 56/92/27
f 56/92/27 54/94/27 6/90/27
f 54/94/27 52/95/27 6/90/27
f 52/95/27 50/52/27 8/51/27
f 6/90/27 52/95/27 8/51/27
f 50/52/27 48/96/27 10/50/27
f 48/96/27 46/97/27 12/98/27
f 10/50/27 48/96/27 12/98/27
f 46/97/27 44/99/27 14/100/27
f 44/99/27 42/101/27 16/102/27
f 14/100/27 44/99/27 16/102/27
f 42/101/27 40/103/27 18/104/27
f 40/103/27 38/105/27 20/106/27
f 18/104/27 40/103/27 20/106/27
f 38/105/27 36/107/27 22/108/27
f 36/107/27 34/109/27 24/110/27
f 22/108/27 36/107/27 24/110/27
f 34/109/27 32/111/27 26/112/27
f 32/111/27 30/113/27 28/114/27
f 26/112/27 32/111/27 28/114/27
f 26/112/27 24/110/27 34/109/27
f 22/108/27 20/106/27 38/105/27
f 18/104/27 16/102/27 42/101/27
f 14/100/27 12/98/27 46/97/27
