# Blender 5.2.0 LTS
# www.blender.org
mtllib base.mtl
o base
v 0.000000 0.003014 -1.000000
v 0.866025 0.003014 -0.500000
v 0.343808 1.462449 -0.054848
v 0.866025 0.003014 0.500000
v 0.000000 0.003014 1.000000
v -0.866025 0.003014 0.500000
v -0.866025 0.003014 -0.500000
v -0.567002 0.804536 0.982076
v -0.567002 0.804536 -0.982076
v 1.046172 0.804536 0.000000
v -0.341789 1.462449 0.347284
v -0.341789 1.462449 -0.456980
vn -0.0000 -1.0000 -0.0000
vn -0.4742 -0.3171 -0.8213
vn -0.4742 -0.3171 0.8213
vn 0.9757 -0.2193 -0.0000
vn 0.3868 0.4786 0.7882
vn -0.9407 0.3385 -0.0207
vn -0.0000 1.0000 -0.0000
vn 0.4395 0.4022 -0.8031
vn 0.4224 0.5503 0.7202
vn 0.5458 0.4026 0.7349
vn 0.4597 0.3934 0.7962
vn -0.9411 0.3381 -0.0000
vn -0.9403 0.3397 0.0185
vn 0.4571 0.4051 -0.7918
vn 0.5114 0.3790 -0.7713
vn 0.4497 0.4580 -0.7668
vt 0.957846 0.370000
vt 0.750000 0.010000
vt 0.542154 0.370000
vt 0.000000 0.000000
vt -0.000000 0.500000
vt 0.166667 0.500000
vt 0.500000 0.500000
vt 0.333333 0.500000
vt 0.833333 0.500000
vt 0.666667 0.500000
vt 0.666667 1.000000
vt 0.042154 0.370000
vt 0.833333 1.000000
vt 0.750000 0.490000
vt 0.957846 0.130000
vt 0.542154 0.130000
vt 0.500000 1.000000
vt 0.042154 0.130000
s 0
usemtl Material.001
f 2/1/1 5/2/1 7/3/1
f 9/4/2 1/5/2 7/6/2
f 5/7/3 8/4/3 6/8/3
f 2/9/4 10/4/4 4/10/4
f 10/4/5 3/11/5 5/7/5
f 12/12/6 9/4/6 7/6/6
f 12/4/7 11/4/7 3/4/7
f 3/13/8 10/4/8 2/9/8
f 7/3/1 1/14/1 2/1/1
f 2/1/1 4/15/1 5/2/1
f 5/2/1 6/16/1 7/3/1
f 11/17/9 8/4/9 3/11/9
f 8/4/10 5/7/10 3/11/10
f 5/7/11 4/10/11 10/4/11
f 7/6/12 6/8/12 11/18/12
f 6/8/13 8/4/13 11/18/13
f 11/18/12 12/12/12 7/6/12
f 2/9/14 1/5/14 3/13/14
f 1/5/15 9/4/15 3/13/15
f 9/4/16 12/4/16 3/13/16
