# Blender 5.2.0 LTS
# www.blender.org
mtllib joint.mtl
o joint
v 0.089248 -0.378059 0.274671
v 0.288808 -0.378059 -0.000000
v -0.233651 -0.378059 0.169757
v -0.233651 -0.378059 -0.169757
v 0.089248 -0.378059 -0.274671
v 0.467303 -0.089248 -0.000000
v 0.144404 -0.089248 0.444428
v -0.378055 -0.089248 0.274671
v -0.378055 -0.089248 -0.274671
v 0.144404 -0.089248 -0.444428
v 0.378055 0.089248 0.274671
v -0.144404 0.089248 0.444428
v -0.467303 0.089248 0.000000
v -0.144404 0.089248 -0.444428
v 0.378055 0.089248 -0.274671
v 0.233651 0.378059 0.169757
v -0.089248 0.378059 0.274671
v -0.288808 0.378059 0.000000
v -0.089248 0.378059 -0.274671
v 0.233651 0.378059 -0.169757
vn -0.0000 -1.0000 -0.0000
vn 0.7236 -0.4472 0.5257
vn -0.2764 -0.4472 0.8507
vn -0.8944 -0.4472 -0.0000
vn 0.7236 -0.4472 -0.5257
vn -0.2764 -0.4472 -0.8507
vn 0.2764 0.4472 0.8507
vn 0.8944 0.4472 -0.0000
vn -0.7236 0.4472 0.5257
vn -0.7236 0.4472 -0.5257
vn -0.0000 1.0000 -0.0000
vn 0.2764 0.4472 -0.8507
vt 0.909091 0.104974
vt 0.727273 0.104974
vt 0.545455 0.104974
vt 0.363637 0.209948
vt 0.272728 0.262434
vt 0.181819 0.209948
vt 0.090910 0.262434
vt 0.909091 0.209948
vt 0.818182 0.262434
vt 0.727273 0.209948
vt 0.363637 0.104974
vt 0.545455 0.209948
vt 0.636364 0.262434
vt 0.272728 0.367408
vt 0.454546 0.367408
vt 0.454546 0.262434
vt 0.090910 0.367408
vt 0.818182 0.367408
vt 0.636364 0.367408
vt 0.181819 0.104974
s 0
usemtl Material.003
f 3/1/1 4/2/1 5/3/1
f 6/4/2 11/5/2 7/6/2
f 7/6/3 12/7/3 8/8/3
f 8/8/4 13/9/4 9/10/4
f 2/11/5 5/3/5 10/12/5
f 9/10/6 14/13/6 10/12/6
f 7/6/7 11/5/7 16/14/7
f 20/15/8 11/5/8 15/16/8
f 12/7/9 17/17/9 18/18/9
f 9/10/10 13/9/10 18/18/10
f 16/14/11 20/15/11 19/19/11
f 14/13/12 19/19/12 20/15/12
f 2/11/1 1/20/1 5/3/1
f 1/20/1 3/1/1 5/3/1
f 7/6/2 1/20/2 2/11/2
f 2/11/2 6/4/2 7/6/2
f 8/8/3 3/1/3 1/20/3
f 1/20/3 7/6/3 8/8/3
f 9/10/4 4/2/4 3/1/4
f 3/1/4 8/8/4 9/10/4
f 15/16/5 6/4/5 10/12/5
f 6/4/5 2/11/5 10/12/5
f 10/12/6 5/3/6 4/2/6
f 4/2/6 9/10/6 10/12/6
f 17/17/7 12/7/7 16/14/7
f 12/7/7 7/6/7 16/14/7
f 16/14/8 11/5/8 20/15/8
f 11/5/8 6/4/8 15/16/8
f 18/18/9 13/9/9 8/8/9
f 8/8/9 12/7/9 18/18/9
f 19/19/10 14/13/10 18/18/10
f 14/13/10 9/10/10 18/18/10
f 18/18/11 17/17/11 19/19/11
f 17/17/11 16/14/11 19/19/11
f 20/15/12 15/16/12 10/12/12
f 10/12/12 14/13/12 20/15/12
